<svg width="1015" height="224" viewBox="0 0 1015 224" fill="none" xmlns="http://www.w3.org/2000/svg">
<rect width="1015" height="224" fill="white"/>
<path d="M363.453 156.219C363.453 148.25 365.281 141.953 368.938 137.328C372.594 132.672 377.5 130.344 383.656 130.344C389.656 130.344 394.391 132.359 397.859 136.391L398.234 131.281H406.203V201.5H397.531V177.312C394.031 181.062 389.375 182.938 383.562 182.938C377.438 182.938 372.547 180.562 368.891 175.812C365.266 171.031 363.453 164.703 363.453 156.828V156.219ZM372.125 157.203C372.125 163.016 373.344 167.578 375.781 170.891C378.25 174.203 381.562 175.859 385.719 175.859C390.875 175.859 394.812 173.578 397.531 169.016V144.172C394.781 139.703 390.875 137.469 385.812 137.469C381.625 137.469 378.297 139.141 375.828 142.484C373.359 145.797 372.125 150.703 372.125 157.203Z" fill="black"/>
<path d="M451.438 176.984C448.062 180.953 443.109 182.938 436.578 182.938C431.172 182.938 427.047 181.375 424.203 178.25C421.391 175.094 419.969 170.438 419.938 164.281V131.281H428.609V164.047C428.609 171.734 431.734 175.578 437.984 175.578C444.609 175.578 449.016 173.109 451.203 168.172V131.281H459.875V182H451.625L451.438 176.984Z" fill="black"/>
<path d="M504.406 182C503.906 181 503.5 179.219 503.188 176.656C499.156 180.844 494.344 182.938 488.75 182.938C483.75 182.938 479.641 181.531 476.422 178.719C473.234 175.875 471.641 172.281 471.641 167.938C471.641 162.656 473.641 158.562 477.641 155.656C481.672 152.719 487.328 151.25 494.609 151.25H503.047V147.266C503.047 144.234 502.141 141.828 500.328 140.047C498.516 138.234 495.844 137.328 492.312 137.328C489.219 137.328 486.625 138.109 484.531 139.672C482.438 141.234 481.391 143.125 481.391 145.344H472.672C472.672 142.812 473.562 140.375 475.344 138.031C477.156 135.656 479.594 133.781 482.656 132.406C485.75 131.031 489.141 130.344 492.828 130.344C498.672 130.344 503.25 131.812 506.562 134.75C509.875 137.656 511.594 141.672 511.719 146.797V170.141C511.719 174.797 512.312 178.5 513.5 181.25V182H504.406ZM490.016 175.391C492.734 175.391 495.312 174.688 497.75 173.281C500.188 171.875 501.953 170.047 503.047 167.797V157.391H496.25C485.625 157.391 480.312 160.5 480.312 166.719C480.312 169.438 481.219 171.562 483.031 173.094C484.844 174.625 487.172 175.391 490.016 175.391Z" fill="black"/>
<path d="M545.656 175.859C548.75 175.859 551.453 174.922 553.766 173.047C556.078 171.172 557.359 168.828 557.609 166.016H565.812C565.656 168.922 564.656 171.688 562.812 174.312C560.969 176.938 558.5 179.031 555.406 180.594C552.344 182.156 549.094 182.938 545.656 182.938C538.75 182.938 533.25 180.641 529.156 176.047C525.094 171.422 523.062 165.109 523.062 157.109V155.656C523.062 150.719 523.969 146.328 525.781 142.484C527.594 138.641 530.188 135.656 533.562 133.531C536.969 131.406 540.984 130.344 545.609 130.344C551.297 130.344 556.016 132.047 559.766 135.453C563.547 138.859 565.562 143.281 565.812 148.719H557.609C557.359 145.438 556.109 142.75 553.859 140.656C551.641 138.531 548.891 137.469 545.609 137.469C541.203 137.469 537.781 139.062 535.344 142.25C532.938 145.406 531.734 149.984 531.734 155.984V157.625C531.734 163.469 532.938 167.969 535.344 171.125C537.75 174.281 541.188 175.859 545.656 175.859Z" fill="black"/>
<path d="M589.719 158.516L584.281 164.188V182H575.609V110H584.281V153.547L588.922 147.969L604.719 131.281H615.266L595.531 152.469L617.562 182H607.391L589.719 158.516Z" fill="black"/>
<path d="M620.75 156.172C620.75 151.141 621.719 146.656 623.656 142.719C625.594 138.781 628.375 135.734 632 133.578C635.656 131.422 639.891 130.344 644.703 130.344C651.547 130.344 657.125 132.438 661.438 136.625C665.781 140.812 668.203 146.5 668.703 153.688L668.797 157.156C668.797 164.938 666.625 171.188 662.281 175.906C657.938 180.594 652.109 182.938 644.797 182.938C637.484 182.938 631.641 180.594 627.266 175.906C622.922 171.219 620.75 164.844 620.75 156.781V156.172ZM634.297 157.156C634.297 161.969 635.203 165.656 637.016 168.219C638.828 170.75 641.422 172.016 644.797 172.016C648.078 172.016 650.641 170.766 652.484 168.266C654.328 165.734 655.25 161.703 655.25 156.172C655.25 151.453 654.328 147.797 652.484 145.203C650.641 142.609 648.047 141.312 644.703 141.312C641.391 141.312 638.828 142.609 637.016 145.203C635.203 147.766 634.297 151.75 634.297 157.156Z" fill="black"/>
<path d="M695.375 165.453L704.797 131.281H718.953L701.844 182H688.906L671.797 131.281H685.953L695.375 165.453Z" fill="black"/>
<path d="M747.641 182.938C740.203 182.938 734.141 180.656 729.453 176.094C724.797 171.531 722.469 165.453 722.469 157.859V156.547C722.469 151.453 723.453 146.906 725.422 142.906C727.391 138.875 730.172 135.781 733.766 133.625C737.391 131.438 741.516 130.344 746.141 130.344C753.078 130.344 758.531 132.531 762.5 136.906C766.5 141.281 768.5 147.484 768.5 155.516V161.047H736.203C736.641 164.359 737.953 167.016 740.141 169.016C742.359 171.016 745.156 172.016 748.531 172.016C753.75 172.016 757.828 170.125 760.766 166.344L767.422 173.797C765.391 176.672 762.641 178.922 759.172 180.547C755.703 182.141 751.859 182.938 747.641 182.938ZM746.094 141.312C743.406 141.312 741.219 142.219 739.531 144.031C737.875 145.844 736.812 148.438 736.344 151.812H755.188V150.734C755.125 147.734 754.312 145.422 752.75 143.797C751.188 142.141 748.969 141.312 746.094 141.312Z" fill="black"/>
<path d="M804.734 143.984C802.891 143.734 801.266 143.609 799.859 143.609C794.734 143.609 791.375 145.344 789.781 148.812V182H776.234V131.281H789.031L789.406 137.328C792.125 132.672 795.891 130.344 800.703 130.344C802.203 130.344 803.609 130.547 804.922 130.953L804.734 143.984Z" fill="black"/>
<path d="M845.281 120.5C842.594 120.188 840.094 120.031 837.781 120.031C831.656 120.031 828.594 122.641 828.594 127.859V131.281H838.672V141.219H828.594V182H815V141.219H807.453V131.281H815V127.344C815.062 121.469 816.906 116.953 820.531 113.797C824.156 110.609 829.281 109.016 835.906 109.016C840.625 109.016 848.281 109.516 858.875 110.516V182H845.281V120.5Z" fill="black"/>
<path d="M868.062 156.172C868.062 151.141 869.031 146.656 870.969 142.719C872.906 138.781 875.688 135.734 879.312 133.578C882.969 131.422 887.203 130.344 892.016 130.344C898.859 130.344 904.438 132.438 908.75 136.625C913.094 140.812 915.516 146.5 916.016 153.688L916.109 157.156C916.109 164.938 913.938 171.188 909.594 175.906C905.25 180.594 899.422 182.938 892.109 182.938C884.797 182.938 878.953 180.594 874.578 175.906C870.234 171.219 868.062 164.844 868.062 156.781V156.172ZM881.609 157.156C881.609 161.969 882.516 165.656 884.328 168.219C886.141 170.75 888.734 172.016 892.109 172.016C895.391 172.016 897.953 170.766 899.797 168.266C901.641 165.734 902.562 161.703 902.562 156.172C902.562 151.453 901.641 147.797 899.797 145.203C897.953 142.609 895.359 141.312 892.016 141.312C888.703 141.312 886.141 142.609 884.328 145.203C882.516 147.766 881.609 151.75 881.609 157.156Z" fill="black"/>
<path d="M968.562 163.578L975.219 131.281H988.297L975.359 182H964.016L954.406 150.078L944.797 182H933.5L920.562 131.281H933.641L940.25 163.531L949.531 131.281H959.328L968.562 163.578Z" fill="black"/>
<rect x="20" y="131" width="20" height="70" fill="#C4C4C4"/>
<rect x="160" y="131" width="20" height="70" fill="#C4C4C4"/>
<rect x="20" y="184" width="160" height="20" fill="#C4C4C4"/>
<path fill-rule="evenodd" clip-rule="evenodd" d="M131.89 122.75C134.861 121.284 136.879 120.289 137.763 121C141.745 124.5 145.241 168 102.924 168C77.5403 168 59.125 152 71.5678 134C73.106 132.068 74.6442 130.659 75.8954 129.513C77.8831 127.692 79.1466 126.534 78.5358 125C78.4152 124.758 78.303 124.527 78.1964 124.309C76.9824 121.817 76.4888 120.803 72.5632 120.5C66.093 120 57.6319 118 60.6182 112C60.7132 111.809 61.3456 111.78 62.3333 111.734C64.6028 111.63 68.7486 111.439 72.5632 109C72.7756 108.573 72.988 107.985 73.239 107.289C74.753 103.093 77.6734 95 90.4808 95C109.394 96 109.892 113 103.919 121.5C101.61 124.785 102.147 127.2 107.403 128C117.988 129.611 126.505 125.408 131.89 122.75ZM82.2226 110.696C83.597 110.696 84.7112 109.352 84.7112 107.696C84.7112 106.039 83.597 104.696 82.2226 104.696C80.8482 104.696 79.7341 106.039 79.7341 107.696C79.7341 109.352 80.8482 110.696 82.2226 110.696Z" fill="#FFC700"/>
<path fill-rule="evenodd" clip-rule="evenodd" d="M168.83 83.4567C171.968 84.5207 174.098 85.2433 174.221 86.3717C174.562 91.6621 146.274 124.893 116.352 94.9703C98.4029 77.0217 96.695 52.6864 118.221 48.7568C120.675 48.4786 122.759 48.5698 124.454 48.644C127.147 48.7618 128.859 48.8367 129.512 47.32C129.598 47.0634 129.682 46.8212 129.761 46.5911C130.665 43.9705 131.032 42.9051 128.471 39.9148C124.249 34.986 119.681 27.5889 126.035 25.4579C126.237 25.3901 126.705 25.8167 127.436 26.4829C129.114 28.0137 132.181 30.8101 136.603 31.783C137.055 31.6315 137.621 31.3654 138.291 31.051C142.328 29.1547 150.116 25.4969 159.172 34.5532C171.838 48.6338 160.169 61.0065 149.936 62.7937C145.98 63.4845 144.653 65.5715 147.803 69.8535C154.149 78.4772 163.144 81.528 168.83 83.4567ZM142.234 39.8122C143.206 40.7841 144.943 40.6222 146.115 39.4506C147.287 38.279 147.449 36.5414 146.477 35.5696C145.505 34.5978 143.767 34.7597 142.596 35.9312C141.424 37.1028 141.262 38.8404 142.234 39.8122Z" fill="#FFC700"/>
<path fill-rule="evenodd" clip-rule="evenodd" d="M222.249 77.8903C223.716 80.8612 224.711 82.8785 224 83.7633C220.5 87.745 177 91.2407 177 48.9236C177 23.5403 193 5.125 211 17.5678C212.932 19.106 214.341 20.6442 215.487 21.8954C217.308 23.8831 218.466 25.1466 220 24.5358C220.242 24.4152 220.473 24.303 220.691 24.1964C223.183 22.9824 224.197 22.4888 224.5 18.5632C225 12.0929 227 3.63188 233 6.61816C233.191 6.71319 233.22 7.34555 233.266 8.3333C233.37 10.6028 233.561 14.7486 236 18.5632C236.427 18.7756 237.015 18.988 237.711 19.239C241.907 20.753 250 23.6734 250 36.4808C249 55.3938 232 55.8915 223.5 49.919C220.215 47.6105 217.8 48.1473 217 53.403C215.389 63.9877 219.592 72.5054 222.249 77.8903ZM234.304 28.2226C234.304 29.597 235.648 30.7112 237.304 30.7112C238.961 30.7112 240.304 29.597 240.304 28.2226C240.304 26.8482 238.961 25.7341 237.304 25.7341C235.648 25.7341 234.304 26.8482 234.304 28.2226Z" fill="#FFC700"/>
<path fill-rule="evenodd" clip-rule="evenodd" d="M259.731 123.83C258.667 126.968 257.944 129.098 256.816 129.221C251.525 129.562 218.294 101.274 248.217 71.3515C266.166 53.4029 290.501 51.695 294.431 73.2213C294.709 75.6748 294.618 77.759 294.543 79.4543C294.426 82.1474 294.351 83.8594 295.867 84.5123C296.124 84.5984 296.366 84.6819 296.596 84.7613C299.217 85.665 300.282 86.0324 303.273 83.4711C308.201 79.2495 315.598 74.6808 317.729 81.0351C317.797 81.2373 317.371 81.705 316.704 82.4357C315.174 84.1144 312.377 87.1811 311.404 91.6028C311.556 92.0547 311.822 92.6211 312.136 93.2906C314.033 97.328 317.69 105.116 308.634 114.172C294.554 126.838 282.181 115.169 280.394 104.936C279.703 100.98 277.616 99.6526 273.334 102.803C264.71 109.149 261.659 118.144 259.731 123.83ZM303.375 97.2341C302.403 98.2059 302.565 99.9435 303.737 101.115C304.908 102.287 306.646 102.449 307.618 101.477C308.59 100.505 308.428 98.7673 307.256 97.5957C306.085 96.4241 304.347 96.2622 303.375 97.2341Z" fill="#FFC700"/>
<path fill-rule="evenodd" clip-rule="evenodd" d="M268.576 176.249C265.605 177.716 263.588 178.711 262.703 178C258.722 174.5 255.226 131 297.543 131C322.926 131 341.342 147 328.899 165C327.361 166.932 325.822 168.341 324.571 169.487C322.584 171.308 321.32 172.466 321.931 174C322.051 174.242 322.164 174.473 322.27 174.691C323.484 177.183 323.978 178.197 327.903 178.5C334.374 179 342.835 181 339.849 187C339.753 187.191 339.121 187.22 338.133 187.266C335.864 187.37 331.718 187.561 327.903 190C327.691 190.427 327.479 191.015 327.228 191.711C325.714 195.907 322.793 204 309.986 204C291.073 203 290.575 186 296.548 177.5C298.856 174.215 298.319 171.8 293.064 171C282.479 169.389 273.961 173.592 268.576 176.249ZM318.244 188.304C316.87 188.304 315.756 189.648 315.756 191.304C315.756 192.961 316.87 194.304 318.244 194.304C319.618 194.304 320.733 192.961 320.733 191.304C320.733 189.648 319.618 188.304 318.244 188.304Z" fill="#FFC700"/>
</svg>
